<?xml version="1.0" encoding="UTF-8"?>
<!DOCTYPE svg PUBLIC "-//W3C//DTD SVG 1.1//EN" "http://www.w3.org/Graphics/SVG/1.1/DTD/svg11.dtd">
<!-- Creator: CorelDRAW 2020 (64-Bit Zkušební verze) -->
<svg xmlns="http://www.w3.org/2000/svg" xml:space="preserve" width="1993px" height="378px" version="1.1" style="shape-rendering:geometricPrecision; text-rendering:geometricPrecision; image-rendering:optimizeQuality; fill-rule:evenodd; clip-rule:evenodd"
viewBox="0 0 2268.53 430.21"
 xmlns:xlink="http://www.w3.org/1999/xlink"
 xmlns:xodm="http://www.corel.com/coreldraw/odm/2003">
 <defs>
  <style type="text/css">
   <![CDATA[
    .fil0 {fill:#EF5443;fill-rule:nonzero}
    .fil1 {fill:#EF5443;fill-rule:nonzero}
   ]]>
  </style>
 </defs>
 <g id="Vrstva_x0020_1">
  <metadata id="CorelCorpID_0Corel-Layer"/>
  <path id="messenger.svg" class="fil0" d="M215.11 430.21c-40.39,0 -79.77,-11.27 -113.86,-32.59 -4.91,-3.07 -11,-3.9 -16.67,-2.07l-73.63 23.71 23.71 -73.63c1.8,-5.59 1.04,-11.69 -2.07,-16.67 -21.32,-34.09 -32.59,-73.46 -32.59,-113.85 0,-118.61 96.5,-215.11 215.11,-215.11 118.6,0 215.1,96.5 215.1,215.11 0,33.73 -7.81,65.67 -21.71,94.11 -26.23,-13.7 -49.52,-30.45 -54.22,-44.32 -6.74,-19.9 -36.56,-48.77 -48.27,-59.56 -2.58,-2.39 -2.34,-2.49 1.15,-1.96 7.84,1.16 18.41,-2.52 24.87,-5.25 3.24,-1.37 2.91,-2.89 -0.44,-3.95 -9.05,-2.85 -26.07,-12.04 -38.1,-41.75 -1.32,-3.27 -3.17,-8.67 -4.52,-11.92 -13.69,-32.87 -35.79,-38.4 -41.85,-39.07 3.77,-0.33 8.88,-4.07 12.56,-7.24 2.67,-2.3 1.96,-3.21 -1.56,-3.37 -6.38,-0.27 -15.83,-2.83 -27.5,-5.39 -9.3,-2.05 -14.5,1.81 -17.26,5.55 -2.1,2.83 -5.17,4.05 -8.25,2.35 -19.39,-10.66 -46.57,-14.26 -50.78,-13.53 -4.62,0.81 -10.44,-1.85 -13.65,-8.62 -1.5,-3.18 -4.33,-5.71 -6.9,-7.51 -2.89,-2.01 -5.79,-1.61 -5.4,0.19 0.4,1.81 2.6,5.57 3.67,8.84 1.15,3.44 1.85,6.64 1,5.29 -0.64,-0.99 -3.03,-2.07 -5.46,-2.96 -3.25,-1.17 -3.92,-0.1 -2.34,2.76 0.78,1.39 1.59,3.17 2.38,5.43 2.81,8.03 9.84,7.42 8.43,8.63 -1.4,1.2 -8.23,7.22 -9.84,20.07 -1.61,12.85 -9.43,20.88 -11.84,35.33 -2.14,12.85 -7.14,13.49 -10.62,28.27 -0.81,3.44 -1.73,9.09 -1.93,12.6 -0.36,6.76 0.79,11.18 2.2,14.03 1.56,3.16 5.36,7.54 8.3,9.49 6.72,4.48 12.79,-5.63 15.9,-3.62 3.76,2.41 12.05,-4.55 8.04,-5.62 -4.02,-1.08 -4.02,-9.11 6.16,-12.31 10.16,-3.22 14.18,-20.35 19,-20.08 4.82,0.27 9.91,-9.64 11.78,-8.3 0.84,0.6 3.01,0.88 5.16,1 2.91,0.17 6.47,2.67 7.84,5.92 6.37,15.04 21.65,54.84 11.09,67.76 -8.31,10.17 -11.35,21.21 -12.47,27.92 -0.58,3.48 -2.89,4.57 -5.8,2.6 -4.39,-2.97 -11.56,-7.38 -21.35,-12.05 -13.41,-6.4 -23.81,0.74 -27.37,8.02 -1.55,3.17 -0.76,8.99 -0.43,12.49 0.47,5.08 0.1,11.05 -3.51,26.07 -5.09,21.14 4.01,23.56 6.16,33.72 2.14,10.17 6.42,9.37 11.37,18.06 1.95,3.43 4.05,4.16 5.87,3.78 3.45,-0.71 4.85,-0.66 6.9,2.2 1.25,1.73 3.29,3.35 6.63,4.06 8.84,1.87 12.32,12.04 21.42,9.9 9.09,-2.13 7.23,7.23 21.13,3.75 13.93,-3.49 -1.87,-26.5 -4.54,-28.1 -2.68,-1.61 -10.98,-5.62 -17.4,0 -6.43,5.62 -7.23,-4.55 -10.44,-4.82 -3.22,-0.27 -32.39,-28.37 -22.75,-28.64 9.64,-0.27 28.37,15.26 38.01,18.47 9.63,3.2 20.87,5.08 28.1,10.7 3.06,2.38 6.17,2.84 8.74,2.58 3.5,-0.36 7.98,-0.01 10.75,2.19 16.33,12.97 56.2,34.55 88.29,50.88 -32.09,19.06 -69.54,30.03 -109.5,30.03z"/>
 </g>
 <g id="Vrstva_x0020_1_0">
  <metadata id="CorelCorpID_1Corel-Layer"/>
  <g id="_2383833644832">
   <path class="fil1" d="M564.65 212.26l44.96 0 0 -64.69 59.5 0 0 64.69 44.96 0 0 -165.58 -44.96 0 0 64.69 -59.5 0 0 -64.69 -44.96 0 0 165.58zm316.26 -103.47c-3.56,-41.09 -33.61,-64.35 -75.35,-64.35 -44.62,0 -79.87,29.75 -79.87,85.03 0,55.06 34.3,85.07 79.87,85.07 48.53,0 73.11,-33.66 75.35,-61.77l-45.6 -0.34c-2.24,14.15 -12.26,22.95 -28.76,22.95 -21.93,0 -34.61,-15.52 -34.61,-45.91 0,-28.76 12.3,-45.91 34.91,-45.91 17.3,0 27.17,10.17 28.46,25.23l45.6 0zm11.32 103.47l44.97 0 0 -49.14 24.89 0c37.75,0 63.06,-22.23 63.06,-57.89 0,-35.25 -24.67,-58.55 -61.43,-58.55l-71.49 0 0 165.58zm44.97 -84.08l0 -45.61 15.86 0c15.74,0 25.19,8.43 25.19,22.66 0,14.15 -9.45,22.95 -25.19,22.95l-15.86 0zm249.97 -19.39c-3.56,-41.09 -33.61,-64.35 -75.35,-64.35 -44.62,0 -79.87,29.75 -79.87,85.03 0,55.06 34.3,85.07 79.87,85.07 48.53,0 73.11,-33.66 75.35,-61.77l-45.6 -0.34c-2.24,14.15 -12.26,22.95 -28.76,22.95 -21.93,0 -34.61,-15.52 -34.61,-45.91 0,-28.76 12.3,-45.91 34.91,-45.91 17.3,0 27.17,10.17 28.46,25.23l45.6 0zm11.32 103.47l119.03 0 0 -36.23 -74.06 0 0 -28.46 68.22 0 0 -36.2 -68.22 0 0 -28.45 74.36 0 0 -36.24 -119.33 0 0 165.58zm132.59 0l44.96 0 0 -64.69 64.35 0 0 -36.2 -64.35 0 0 -28.45 71.45 0 0 -36.24 -116.41 0 0 165.58zm146.17 0l9.52 -31.68 54.67 0 9.53 31.68 48.49 0 -54.64 -165.58 -61.43 0 -54.67 165.58 48.53 0zm19.73 -65.34l16.46 -54.63 1.29 0 16.51 54.63 -34.26 0zm252.55 -100.24l-44.96 0 0 86.66 -1.29 0 -58.85 -86.66 -38.17 0 0 165.58 44.97 0 0 -87 0.94 0 59.84 87 37.52 0 0 -165.58zm101.55 51.75l42.99 0c-0.15,-32.51 -25.23,-53.99 -65.34,-53.99 -39.34,0 -67.15,21.17 -66.93,52.7 -0.07,25.88 17.87,40.26 47.24,46.56l16.47 3.56c18.44,4.03 24.74,8.66 24.93,16.17 -0.19,8.16 -7.63,13.92 -22.01,13.92 -17.22,0 -27.39,-8.12 -28.15,-23.29l-42.69 0c0.19,41.54 28.31,60.13 71.49,60.13 41.96,0 67.08,-18.09 67.27,-50.76 -0.19,-25.23 -15.22,-42.91 -51.76,-50.77l-13.58 -2.92c-15.67,-3.3 -22.73,-7.93 -22.31,-15.82 0.08,-7.29 6.15,-12.64 20.03,-12.64 14.57,0 21.44,6.42 22.35,17.15zm78.25 116.41c11.88,0 22.47,-10.02 22.62,-22.61 -0.15,-12.3 -10.74,-22.31 -22.62,-22.31 -12.56,0 -22.8,10.01 -22.65,22.31 -0.15,12.59 10.09,22.61 22.65,22.61zm191.74 -106.05c-3.57,-41.09 -33.62,-64.35 -75.35,-64.35 -44.62,0 -79.87,29.75 -79.87,85.03 0,55.06 34.3,85.07 79.87,85.07 48.52,0 73.11,-33.66 75.35,-61.77l-45.61 -0.34c-2.24,14.15 -12.25,22.95 -28.76,22.95 -21.93,0 -34.6,-15.52 -34.6,-45.91 0,-28.76 12.29,-45.91 34.91,-45.91 17.3,0 27.16,10.17 28.45,25.23l45.61 0zm11.97 103.47l135.18 0 0 -36.23 -77.93 0 78.24 -104.42 0 -24.93 -135.15 0 0 36.24 77.93 0 -78.27 104.45 0 24.89z"/>
   <path class="fil1" d="M564.65 303.76l22.68 0 0 61.17 15.49 0 0 -61.17 22.68 0 0 -12.92 -60.85 0 0 12.92zm70.61 61.17l15.42 0 0 -55.57 -15.42 0 0 55.57zm7.75 -62.73c4.6,0 8.35,-3.5 8.35,-7.81 0,-4.26 -3.75,-7.78 -8.35,-7.78 -4.55,0 -8.32,3.52 -8.32,7.78 0,4.31 3.77,7.81 8.32,7.81zm19.96 83.57l15.42 0 0 -29.73 0.47 0c2.13,4.63 6.8,9.79 15.78,9.79 12.65,0 22.53,-10.01 22.53,-28.6 0,-19.11 -10.31,-28.58 -22.5,-28.58 -9.3,0 -13.75,5.54 -15.81,10.05l-0.69 0 0 -9.34 -15.2 0 0 76.41zm15.1 -48.61c0,-9.92 4.19,-16.25 11.68,-16.25 7.64,0 11.68,6.62 11.68,16.25 0,9.69 -4.13,16.42 -11.68,16.42 -7.42,0 -11.68,-6.52 -11.68,-16.42zm74.45 28.86c16.85,0 27.35,-11.54 27.35,-28.66 0,-17.22 -10.5,-28.71 -27.35,-28.71 -16.86,0 -27.36,11.49 -27.36,28.71 0,17.12 10.5,28.66 27.36,28.66zm0.06 -11.94c-7.77,0 -11.75,-7.13 -11.75,-16.82 0,-9.7 3.98,-16.86 11.75,-16.86 7.64,0 11.62,7.16 11.62,16.86 0,9.69 -3.98,16.82 -11.62,16.82zm87.29 -44.72l-16.32 0 -11.49 39.77 -0.58 0 -11.54 -39.77 -16.29 0 19.43 55.57 17.37 0 19.42 -55.57zm22.17 56.63c8.22,0 13.53,-3.59 16.25,-8.76l0.44 0 0 7.7 14.62 0 0 -37.47c0,-13.24 -11.22,-18.81 -23.6,-18.81 -13.31,0 -22.05,6.37 -24.19,16.49l14.24 1.15c1.05,-3.68 4.35,-6.4 9.88,-6.4 5.25,0 8.25,2.65 8.25,7.2l0 0.22c0,3.58 -3.8,4.06 -13.46,4.99 -11,1.02 -20.87,4.71 -20.87,17.12 0,11 7.85,16.57 18.44,16.57zm4.42 -10.65c-4.74,0 -8.14,-2.21 -8.14,-6.43 0,-4.35 3.59,-6.47 9.02,-7.24 3.36,-0.47 8.86,-1.27 10.7,-2.49l0 5.89c0,5.82 -4.81,10.27 -11.58,10.27zm63.97 10.68c14.79,0 24.09,-8.68 24.82,-21.46l-14.55 0c-0.9,5.94 -4.8,9.27 -10.08,9.27 -7.2,0 -11.87,-6.04 -11.87,-16.67 0,-10.49 4.7,-16.51 11.87,-16.51 5.63,0 9.25,3.72 10.08,9.26l14.55 0c-0.66,-12.84 -10.39,-21.26 -24.89,-21.26 -16.86,0 -27.28,11.68 -27.28,28.71 0,16.89 10.24,28.66 27.35,28.66zm-7.3 -79.73l-13.14 0 0 0.51 14.65 15.91 11.46 0 14.7 -15.91 0 -0.51 -13.14 0 -7.26 8.83 -7.27 -8.83zm42.02 78.64l15.42 0 0 -17.65 4.16 -4.74 15.16 22.39 18.05 0 -21.67 -31.51 20.62 -24.06 -17.7 0 -17.79 21.09 -0.83 0 0 -39.61 -15.42 0 0 74.09zm75.1 1.06c8.22,0 13.53,-3.59 16.25,-8.76l0.44 0 0 7.7 14.62 0 0 -37.47c0,-13.24 -11.23,-18.81 -23.6,-18.81 -13.32,0 -22.06,6.37 -24.2,16.49l14.25 1.15c1.05,-3.68 4.34,-6.4 9.88,-6.4 5.24,0 8.25,2.65 8.25,7.2l0 0.22c0,3.58 -3.8,4.06 -13.46,4.99 -11.01,1.02 -20.87,4.71 -20.87,17.12 0,11 7.84,16.57 18.44,16.57zm4.41 -10.65c-4.74,0 -8.13,-2.21 -8.13,-6.43 0,-4.35 3.58,-6.47 9.02,-7.24 3.36,-0.47 8.86,-1.27 10.69,-2.49l0 5.89c0,5.82 -4.8,10.27 -11.58,10.27zm62.48 30.43l15.42 0 0 -29.73 0.47 0c2.13,4.63 6.8,9.79 15.78,9.79 12.65,0 22.53,-10.01 22.53,-28.6 0,-19.11 -10.31,-28.58 -22.5,-28.58 -9.3,0 -13.75,5.54 -15.81,10.05l-0.69 0 0 -9.34 -15.2 0 0 76.41zm15.1 -48.61c0,-9.92 4.19,-16.25 11.68,-16.25 7.64,0 11.68,6.62 11.68,16.25 0,9.69 -4.13,16.42 -11.68,16.42 -7.42,0 -11.68,-6.52 -11.68,-16.42zm65.18 28.83c8.21,0 13.53,-3.59 16.24,-8.76l0.44 0 0 7.7 14.62 0 0 -37.47c0,-13.24 -11.22,-18.81 -23.6,-18.81 -13.31,0 -22.05,6.37 -24.19,16.49l14.24 1.15c1.06,-3.68 4.35,-6.4 9.89,-6.4 5.24,0 8.25,2.65 8.25,7.2l0 0.22c0,3.58 -3.81,4.06 -13.47,4.99 -11,1.02 -20.86,4.71 -20.86,17.12 0,11 7.84,16.57 18.44,16.57zm4.41 -10.65c-4.74,0 -8.13,-2.21 -8.13,-6.43 0,-4.35 3.58,-6.47 9.01,-7.24 3.36,-0.47 8.87,-1.27 10.7,-2.49l0 5.89c0,5.82 -4.81,10.27 -11.58,10.27zm38.86 9.59l15.42 0 0 -31.44c0,-6.82 4.99,-11.53 11.8,-11.53 2.12,0 5.06,0.36 6.5,0.83l0 -13.68c-1.37,-0.32 -3.29,-0.54 -4.84,-0.54 -6.23,0 -11.32,3.61 -13.36,10.49l-0.58 0 0 -9.7 -14.94 0 0 55.57zm59.51 0.9c8.99,0 13.64,-5.16 15.78,-9.79l0.66 0 0 8.89 15.18 0 0 -74.09 -15.37 0 0 27.86 -0.47 0c-2.06,-4.51 -6.51,-10.05 -15.81,-10.05 -12.19,0 -22.5,9.47 -22.5,28.58 0,18.59 9.87,28.6 22.53,28.6zm4.89 -12.25c-7.55,0 -11.68,-6.73 -11.68,-16.42 0,-9.63 4.04,-16.25 11.68,-16.25 7.49,0 11.68,6.33 11.68,16.25 0,9.9 -4.26,16.42 -11.68,16.42zm75 -12.3c0.03,7.44 -5.06,11.36 -10.6,11.36 -5.82,0 -9.59,-4.09 -9.62,-10.64l0 -32.64 -15.42 0 0 35.39c0.03,12.98 7.64,20.91 18.81,20.91 8.35,0 14.36,-4.31 16.86,-10.81l0.58 0 0 10.08 14.8 0 0 -55.57 -15.41 0 0 31.92zm27.99 23.65l15.2 0 0 -8.89 0.69 0c2.13,4.63 6.8,9.79 15.78,9.79 12.65,0 22.53,-10.01 22.53,-28.6 0,-19.11 -10.31,-28.58 -22.5,-28.58 -9.3,0 -13.75,5.54 -15.81,10.05l-0.47 0 0 -27.86 -15.42 0 0 74.09zm15.1 -27.77c0,-9.92 4.19,-16.25 11.68,-16.25 7.64,0 11.68,6.62 11.68,16.25 0,9.69 -4.13,16.42 -11.68,16.42 -7.42,0 -11.68,-6.52 -11.68,-16.42zm49.34 27.77l15.41 0 0 -55.57 -15.41 0 0 55.57zm7.74 -62.73c4.6,0 8.35,-3.5 8.35,-7.81 0,-4.26 -3.75,-7.78 -8.35,-7.78 -4.55,0 -8.32,3.52 -8.32,7.78 0,4.31 3.77,7.81 8.32,7.81zm45.07 63.82c14.79,0 24.1,-8.68 24.83,-21.46l-14.55 0c-0.9,5.94 -4.81,9.27 -10.09,9.27 -7.2,0 -11.87,-6.04 -11.87,-16.67 0,-10.49 4.71,-16.51 11.87,-16.51 5.64,0 9.25,3.72 10.09,9.26l14.55 0c-0.66,-12.84 -10.39,-21.26 -24.89,-21.26 -16.86,0 -27.29,11.68 -27.29,28.71 0,16.89 10.24,28.66 27.35,28.66zm34.73 -1.09l15.41 0 0 -17.65 4.16 -4.74 15.16 22.39 18.05 0 -21.66 -31.51 20.61 -24.06 -17.69 0 -17.8 21.09 -0.83 0 0 -39.61 -15.41 0 0 74.09zm69.64 20.84c11.46,0 17.54,-5.86 20.68,-14.83l21.6 -61.58 -16.32 0 -11.61 40.82 -0.58 0 -11.49 -40.82 -16.22 0 19.93 57.17 -0.9 2.34c-2.02,5.22 -5.89,5.47 -11.32,3.81l-3.46 11.51c2.2,0.93 5.77,1.58 9.69,1.58zm8.52 -83.57l10.9 0 11.04 -16.45 -14.26 0 -7.68 16.45zm64.91 63.82c14.79,0 24.09,-8.68 24.82,-21.46l-14.55 0c-0.9,5.94 -4.8,9.27 -10.08,9.27 -7.2,0 -11.87,-6.04 -11.87,-16.67 0,-10.49 4.7,-16.51 11.87,-16.51 5.63,0 9.25,3.72 10.08,9.26l14.55 0c-0.66,-12.84 -10.39,-21.26 -24.89,-21.26 -16.86,0 -27.28,11.68 -27.28,28.71 0,16.89 10.24,28.66 27.35,28.66zm50.14 -33.21c0.03,-7.16 4.41,-11.36 10.71,-11.36 6.25,0 9.95,4.01 9.9,10.85l0 32.63 15.42 0 0 -35.38c0.03,-13.02 -7.63,-20.9 -19.21,-20.9 -8.44,0 -14.07,3.97 -16.6,10.53l-0.66 0 0 -28.34 -14.98 0 0 74.09 15.42 0 0 -32.12zm101.68 -23.45l-11.03 0 0 -3.71c0,-3.77 1.52,-5.98 6.04,-5.98 1.85,0 3.74,0.41 4.96,0.8l2.71 -11.58c-1.91,-0.58 -6.14,-1.51 -10.88,-1.51 -10.46,0 -18.23,5.89 -18.23,17.98l0 4 -7.86 0 0 11.58 7.86 0 0 43.99 15.4 0 0 -43.99 11.03 0 0 -11.58zm23.23 56.63c8.22,0 13.53,-3.59 16.25,-8.76l0.44 0 0 7.7 14.62 0 0 -37.47c0,-13.24 -11.23,-18.81 -23.6,-18.81 -13.31,0 -22.06,6.37 -24.2,16.49l14.25 1.15c1.05,-3.68 4.34,-6.4 9.88,-6.4 5.24,0 8.25,2.65 8.25,7.2l0 0.22c0,3.58 -3.8,4.06 -13.46,4.99 -11.01,1.02 -20.87,4.71 -20.87,17.12 0,11 7.84,16.57 18.44,16.57zm4.41 -10.65c-4.74,0 -8.13,-2.21 -8.13,-6.43 0,-4.35 3.58,-6.47 9.02,-7.24 3.36,-0.47 8.86,-1.27 10.69,-2.49l0 5.89c0,5.82 -4.8,10.27 -11.58,10.27zm54.28 -22.53c0.04,-7.16 4.3,-11.36 10.53,-11.36 6.18,0 9.91,4.06 9.88,10.85l0 32.63 15.4 0 0 -35.38c0,-12.95 -7.59,-20.9 -19.17,-20.9 -8.25,0 -14.21,4.04 -16.71,10.53l-0.66 0 0 -9.82 -14.68 0 0 55.57 15.41 0 0 -32.12zm73.04 33.21c16.86,0 27.35,-11.54 27.35,-28.66 0,-17.22 -10.49,-28.71 -27.35,-28.71 -16.86,0 -27.35,11.49 -27.35,28.71 0,17.12 10.49,28.66 27.35,28.66zm0.07 -11.94c-7.78,0 -11.75,-7.13 -11.75,-16.82 0,-9.7 3.97,-16.86 11.75,-16.86 7.64,0 11.61,7.16 11.61,16.86 0,9.69 -3.97,16.82 -11.61,16.82zm72.97 -12.8c0.04,7.44 -5.06,11.36 -10.59,11.36 -5.83,0 -9.59,-4.09 -9.63,-10.64l0 -32.64 -15.41 0 0 35.39c0.03,12.98 7.64,20.91 18.81,20.91 8.35,0 14.36,-4.31 16.86,-10.81l0.57 0 0 10.08 14.81 0 0 -55.57 -15.42 0 0 31.92zm73.94 -16.07c-1.37,-10.24 -9.62,-16.56 -23.65,-16.56 -14.23,0 -23.58,6.57 -23.55,17.29 -0.03,8.31 5.22,13.71 16.07,15.87l9.6 1.92c4.86,0.98 7.07,2.75 7.14,5.53 -0.07,3.3 -3.65,5.66 -9.04,5.66 -5.5,0 -9.16,-2.36 -10.1,-6.88l-15.16 0.8c1.46,10.63 10.49,17.18 25.21,17.18 14.4,0 24.72,-7.35 24.76,-18.3 -0.04,-8.03 -5.28,-12.86 -16.07,-15.06l-10.06 -2.02c-5.16,-1.12 -7.08,-2.89 -7.05,-5.57 -0.03,-3.33 3.72,-5.5 8.51,-5.5 5.35,0 8.54,2.94 9.28,6.52l14.11 -0.88zm-30.59 -38.92l-13.14 0 0 0.51 14.65 15.91 11.48 0 14.68 -15.91 0 -0.51 -13.14 0 -7.27 8.83 -7.26 -8.83zm41.6 78.64l15.41 0 0 -17.65 4.16 -4.74 15.16 22.39 18.05 0 -21.66 -31.51 20.61 -24.06 -17.69 0 -17.8 21.09 -0.83 0 0 -39.61 -15.41 0 0 74.09zm94.89 -23.65c0.03,7.44 -5.06,11.36 -10.6,11.36 -5.82,0 -9.59,-4.09 -9.62,-10.64l0 -32.64 -15.42 0 0 35.39c0.03,12.98 7.64,20.91 18.81,20.91 8.36,0 14.36,-4.31 16.86,-10.81l0.58 0 0 10.08 14.8 0 0 -55.57 -15.41 0 0 31.92zm-10.02 -37.88c6.82,0 12.33,-5.24 12.33,-11.86 0,-6.59 -5.51,-12.06 -12.33,-12.06 -6.88,0 -12.41,5.47 -12.41,12.06 0,6.62 5.53,11.86 12.41,11.86zm0 -6.45c-3.23,0 -5.65,-2.56 -5.65,-5.41 0,-2.94 2.42,-5.5 5.65,-5.54 3.17,0 5.64,2.6 5.64,5.54 0,2.85 -2.47,5.38 -5.64,5.41z"/>
  </g>
 </g>
</svg>
