<?xml version="1.0" encoding="UTF-8"?>
<!DOCTYPE svg PUBLIC "-//W3C//DTD SVG 1.1//EN" "http://www.w3.org/Graphics/SVG/1.1/DTD/svg11.dtd">
<!-- Creator: CorelDRAW 2020 (64-Bit Zkušební verze) -->
<svg xmlns="http://www.w3.org/2000/svg" xml:space="preserve" width="649px" height="123px" version="1.1" style="shape-rendering:geometricPrecision; text-rendering:geometricPrecision; image-rendering:optimizeQuality; fill-rule:evenodd; clip-rule:evenodd"
viewBox="0 0 738.72 140.09"
 xmlns:xlink="http://www.w3.org/1999/xlink"
 xmlns:xodm="http://www.corel.com/coreldraw/odm/2003">
 <defs>
  <style type="text/css">
   <![CDATA[
    .fil1 {fill:#FEFEFE;fill-rule:nonzero}
    .fil0 {fill:#EF5443;fill-rule:nonzero}
   ]]>
  </style>
 </defs>
 <g id="Vrstva_x0020_1">
  <metadata id="CorelCorpID_0Corel-Layer"/>
  <path id="messenger.svg" class="fil0" d="M70.05 140.09c-13.16,0 -25.98,-3.67 -37.08,-10.61 -1.6,-1 -3.58,-1.27 -5.43,-0.67l-23.98 7.72 7.73 -23.98c0.58,-1.82 0.34,-3.81 -0.68,-5.43 -6.94,-11.1 -10.61,-23.92 -10.61,-37.07 0,-38.63 31.42,-70.05 70.05,-70.05 38.62,0 70.04,31.42 70.04,70.05 0,10.98 -2.54,21.38 -7.07,30.64 -8.54,-4.46 -16.12,-9.91 -17.65,-14.43 -2.2,-6.48 -11.91,-15.88 -15.72,-19.39 -0.84,-0.78 -0.76,-0.81 0.37,-0.64 2.56,0.38 6,-0.82 8.1,-1.71 1.06,-0.45 0.95,-0.94 -0.14,-1.29 -2.95,-0.92 -8.49,-3.92 -12.41,-13.59 -0.43,-1.07 -1.03,-2.83 -1.47,-3.89 -4.46,-10.7 -11.65,-12.5 -13.63,-12.72 1.23,-0.11 2.89,-1.32 4.09,-2.36 0.87,-0.74 0.64,-1.04 -0.51,-1.09 -2.07,-0.09 -5.15,-0.92 -8.95,-1.76 -3.03,-0.66 -4.72,0.59 -5.62,1.81 -0.69,0.92 -1.69,1.32 -2.69,0.77 -6.31,-3.48 -15.16,-4.65 -16.53,-4.41 -1.51,0.26 -3.4,-0.6 -4.45,-2.81 -0.49,-1.03 -1.41,-1.86 -2.25,-2.44 -0.94,-0.66 -1.88,-0.53 -1.75,0.06 0.13,0.59 0.84,1.81 1.19,2.88 0.37,1.12 0.6,2.16 0.33,1.72 -0.21,-0.32 -0.99,-0.67 -1.78,-0.96 -1.06,-0.39 -1.28,-0.04 -0.76,0.9 0.25,0.45 0.51,1.03 0.77,1.76 0.92,2.62 3.21,2.42 2.75,2.81 -0.46,0.39 -2.68,2.36 -3.21,6.54 -0.52,4.18 -3.07,6.8 -3.85,11.5 -0.7,4.19 -2.33,4.4 -3.46,9.21 -0.26,1.12 -0.57,2.96 -0.63,4.1 -0.12,2.2 0.26,3.64 0.72,4.57 0.5,1.03 1.74,2.46 2.7,3.09 2.19,1.46 4.16,-1.83 5.18,-1.18 1.22,0.79 3.92,-1.48 2.61,-1.83 -1.3,-0.35 -1.3,-2.96 2.01,-4.01 3.31,-1.04 4.62,-6.62 6.19,-6.53 1.57,0.08 3.22,-3.14 3.83,-2.71 0.28,0.2 0.98,0.29 1.68,0.33 0.95,0.05 2.11,0.87 2.56,1.92 2.07,4.9 7.05,17.86 3.61,22.07 -2.71,3.31 -3.7,6.91 -4.06,9.09 -0.19,1.14 -0.94,1.49 -1.89,0.85 -1.43,-0.97 -3.76,-2.4 -6.95,-3.92 -4.37,-2.09 -7.76,0.24 -8.92,2.61 -0.5,1.03 -0.24,2.92 -0.14,4.07 0.16,1.65 0.04,3.59 -1.14,8.48 -1.66,6.89 1.31,7.67 2.01,10.98 0.69,3.32 2.09,3.06 3.7,5.89 0.64,1.11 1.32,1.35 1.91,1.23 1.12,-0.23 1.58,-0.22 2.25,0.71 0.4,0.57 1.07,1.09 2.16,1.32 2.88,0.62 4.01,3.93 6.97,3.23 2.96,-0.7 2.35,2.35 6.88,1.22 4.54,-1.13 -0.61,-8.63 -1.48,-9.15 -0.87,-0.52 -3.57,-1.83 -5.66,0 -2.09,1.83 -2.36,-1.48 -3.4,-1.57 -1.05,-0.09 -10.55,-9.24 -7.41,-9.33 3.14,-0.08 9.24,4.97 12.38,6.02 3.13,1.04 6.79,1.65 9.15,3.48 0.99,0.78 2.01,0.93 2.84,0.84 1.15,-0.12 2.6,0 3.5,0.71 5.32,4.23 18.31,11.26 28.76,16.57 -10.45,6.21 -22.65,9.78 -35.66,9.78z"/>
 </g>
 <g id="Vrstva_x0020_1_0">
  <metadata id="CorelCorpID_1Corel-Layer"/>
  <g id="_2383836862992">
   <path class="fil1" d="M183.87 69.12l14.64 0 0 -21.07 19.38 0 0 21.07 14.64 0 0 -53.92 -14.64 0 0 21.07 -19.38 0 0 -21.07 -14.64 0 0 53.92zm102.99 -33.69c-1.16,-13.38 -10.95,-20.96 -24.54,-20.96 -14.53,0 -26.01,9.69 -26.01,27.69 0,17.93 11.17,27.7 26.01,27.7 15.81,0 23.81,-10.96 24.54,-20.11l-14.85 -0.11c-0.73,4.6 -3.99,7.47 -9.37,7.47 -7.14,0 -11.26,-5.05 -11.26,-14.95 0,-9.36 4,-14.95 11.36,-14.95 5.64,0 8.85,3.31 9.27,8.22l14.85 0zm3.69 33.69l14.64 0 0 -16 8.1 0c12.3,0 20.54,-7.24 20.54,-18.85 0,-11.48 -8.03,-19.07 -20.01,-19.07l-23.27 0 0 53.92zm14.64 -27.38l0 -14.85 5.16 0c5.13,0 8.21,2.74 8.21,7.38 0,4.6 -3.08,7.47 -8.21,7.47l-5.16 0zm81.4 -6.31c-1.16,-13.38 -10.95,-20.96 -24.54,-20.96 -14.53,0 -26,9.69 -26,27.69 0,17.93 11.16,27.7 26,27.7 15.81,0 23.81,-10.96 24.54,-20.11l-14.85 -0.11c-0.73,4.6 -3.99,7.47 -9.37,7.47 -7.14,0 -11.26,-5.05 -11.26,-14.95 0,-9.36 4,-14.95 11.36,-14.95 5.64,0 8.85,3.31 9.27,8.22l14.85 0zm3.69 33.69l38.76 0 0 -11.8 -24.12 0 0 -9.27 22.21 0 0 -11.78 -22.21 0 0 -9.27 24.22 0 0 -11.8 -38.86 0 0 53.92zm43.17 0l14.64 0 0 -21.07 20.96 0 0 -11.78 -20.96 0 0 -9.27 23.27 0 0 -11.8 -37.91 0 0 53.92zm47.6 0l3.1 -10.32 17.81 0 3.1 10.32 15.79 0 -17.79 -53.92 -20.01 0 -17.8 53.92 15.8 0zm6.43 -21.28l5.36 -17.79 0.42 0 5.37 17.79 -11.15 0zm82.24 -32.64l-14.64 0 0 28.22 -0.42 0 -19.17 -28.22 -12.43 0 0 53.92 14.64 0 0 -28.33 0.31 0 19.49 28.33 12.22 0 0 -53.92zm33.07 16.85l13.99 0c-0.04,-10.58 -8.21,-17.58 -21.27,-17.58 -12.81,0 -21.87,6.9 -21.8,17.16 -0.02,8.43 5.82,13.11 15.39,15.16l5.36 1.17c6,1.31 8.05,2.81 8.12,5.26 -0.07,2.66 -2.49,4.53 -7.17,4.53 -5.61,0 -8.92,-2.64 -9.17,-7.58l-13.9 0c0.06,13.53 9.22,19.58 23.28,19.58 13.66,0 21.84,-5.89 21.91,-16.53 -0.07,-8.22 -4.96,-13.97 -16.86,-16.53l-4.42 -0.95c-5.1,-1.08 -7.4,-2.59 -7.27,-5.16 0.03,-2.37 2.01,-4.11 6.53,-4.11 4.74,0 6.98,2.09 7.28,5.58zm25.48 37.91c3.86,0 7.31,-3.26 7.36,-7.36 -0.05,-4.01 -3.5,-7.27 -7.36,-7.27 -4.09,0 -7.43,3.26 -7.38,7.27 -0.05,4.1 3.29,7.36 7.38,7.36zm62.43 -34.53c-1.16,-13.38 -10.94,-20.96 -24.53,-20.96 -14.53,0 -26.01,9.69 -26.01,27.69 0,17.93 11.17,27.7 26.01,27.7 15.8,0 23.81,-10.96 24.53,-20.11l-14.85 -0.11c-0.73,4.6 -3.99,7.47 -9.36,7.47 -7.14,0 -11.27,-5.05 -11.27,-14.95 0,-9.36 4,-14.95 11.37,-14.95 5.63,0 8.84,3.31 9.26,8.22l14.85 0zm3.9 33.69l44.02 0 0 -11.8 -25.37 0 25.47 -34 0 -8.12 -44.01 0 0 11.8 25.38 0 -25.49 34.02 0 8.1z"/>
   <path class="fil1" d="M183.87 98.92l7.39 0 0 19.92 5.04 0 0 -19.92 7.39 0 0 -4.21 -19.82 0 0 4.21zm23 19.92l5.02 0 0 -18.1 -5.02 0 0 18.1zm2.52 -20.43c1.5,0 2.72,-1.14 2.72,-2.55 0,-1.38 -1.22,-2.53 -2.72,-2.53 -1.48,0 -2.71,1.15 -2.71,2.53 0,1.41 1.23,2.55 2.71,2.55zm6.5 27.21l5.02 0 0 -9.68 0.15 0c0.7,1.51 2.22,3.19 5.14,3.19 4.12,0 7.34,-3.26 7.34,-9.32 0,-6.22 -3.36,-9.3 -7.33,-9.3 -3.03,0 -4.48,1.8 -5.15,3.27l-0.22 0 0 -3.04 -4.95 0 0 24.88zm4.92 -15.83c0,-3.23 1.36,-5.29 3.8,-5.29 2.49,0 3.8,2.16 3.8,5.29 0,3.16 -1.34,5.35 -3.8,5.35 -2.42,0 -3.8,-2.12 -3.8,-5.35zm24.24 9.4c5.49,0 8.91,-3.76 8.91,-9.33 0,-5.61 -3.42,-9.35 -8.91,-9.35 -5.49,0 -8.91,3.74 -8.91,9.35 0,5.57 3.42,9.33 8.91,9.33zm0.02 -3.89c-2.53,0 -3.82,-2.32 -3.82,-5.47 0,-3.16 1.29,-5.49 3.82,-5.49 2.49,0 3.78,2.33 3.78,5.49 0,3.15 -1.29,5.47 -3.78,5.47zm28.42 -14.56l-5.31 0 -3.74 12.95 -0.19 0 -3.76 -12.95 -5.3 0 6.32 18.1 5.66 0 6.32 -18.1zm7.23 18.44c2.67,0 4.4,-1.17 5.29,-2.85l0.14 0 0 2.51 4.76 0 0 -12.21c0,-4.31 -3.65,-6.12 -7.68,-6.12 -4.34,0 -7.19,2.07 -7.88,5.37l4.64 0.37c0.34,-1.2 1.41,-2.08 3.21,-2.08 1.71,0 2.69,0.86 2.69,2.34l0 0.08c0,1.16 -1.24,1.32 -4.38,1.62 -3.59,0.33 -6.8,1.53 -6.8,5.57 0,3.59 2.56,5.4 6.01,5.4zm1.43 -3.47c-1.54,0 -2.65,-0.72 -2.65,-2.09 0,-1.42 1.17,-2.11 2.94,-2.36 1.09,-0.15 2.89,-0.41 3.48,-0.81l0 1.92c0,1.89 -1.56,3.34 -3.77,3.34zm20.84 3.48c4.81,0 7.84,-2.82 8.08,-6.99l-4.74 0c-0.29,1.94 -1.56,3.02 -3.28,3.02 -2.35,0 -3.87,-1.97 -3.87,-5.43 0,-3.41 1.53,-5.37 3.87,-5.37 1.83,0 3.01,1.21 3.28,3.01l4.74 0c-0.22,-4.18 -3.39,-6.92 -8.11,-6.92 -5.49,0 -8.88,3.8 -8.88,9.35 0,5.5 3.33,9.33 8.91,9.33zm-2.38 -25.96l-4.28 0 0 0.16 4.77 5.18 3.73 0 4.79 -5.18 0 -0.16 -4.28 0 -2.37 2.87 -2.36 -2.87zm13.68 25.61l5.02 0 0 -5.75 1.36 -1.55 4.93 7.3 5.88 0 -7.05 -10.26 6.71 -7.84 -5.76 0 -5.8 6.87 -0.27 0 0 -12.9 -5.02 0 0 24.13zm24.46 0.34c2.67,0 4.4,-1.17 5.29,-2.85l0.14 0 0 2.51 4.76 0 0 -12.21c0,-4.31 -3.65,-6.12 -7.68,-6.12 -4.34,0 -7.19,2.07 -7.88,5.37l4.64 0.37c0.34,-1.2 1.41,-2.08 3.21,-2.08 1.71,0 2.69,0.86 2.69,2.34l0 0.08c0,1.16 -1.24,1.32 -4.38,1.62 -3.59,0.33 -6.8,1.53 -6.8,5.57 0,3.59 2.56,5.4 6.01,5.4zm1.43 -3.47c-1.54,0 -2.64,-0.72 -2.64,-2.09 0,-1.42 1.16,-2.11 2.93,-2.36 1.1,-0.15 2.89,-0.41 3.48,-0.81l0 1.92c0,1.89 -1.56,3.34 -3.77,3.34zm20.35 9.91l5.02 0 0 -9.68 0.15 0c0.7,1.51 2.22,3.19 5.14,3.19 4.12,0 7.34,-3.26 7.34,-9.32 0,-6.22 -3.36,-9.3 -7.33,-9.3 -3.03,0 -4.48,1.8 -5.15,3.27l-0.22 0 0 -3.04 -4.95 0 0 24.88zm4.91 -15.83c0,-3.23 1.37,-5.29 3.81,-5.29 2.49,0 3.8,2.16 3.8,5.29 0,3.16 -1.34,5.35 -3.8,5.35 -2.42,0 -3.81,-2.12 -3.81,-5.35zm21.23 9.39c2.68,0 4.41,-1.17 5.29,-2.85l0.14 0 0 2.51 4.76 0 0 -12.21c0,-4.31 -3.65,-6.12 -7.68,-6.12 -4.33,0 -7.18,2.07 -7.88,5.37l4.64 0.37c0.34,-1.2 1.42,-2.08 3.22,-2.08 1.71,0 2.68,0.86 2.68,2.34l0 0.08c0,1.16 -1.23,1.32 -4.38,1.62 -3.58,0.33 -6.79,1.53 -6.79,5.57 0,3.59 2.55,5.4 6,5.4zm1.44 -3.47c-1.55,0 -2.65,-0.72 -2.65,-2.09 0,-1.42 1.17,-2.11 2.93,-2.36 1.1,-0.15 2.89,-0.41 3.49,-0.81l0 1.92c0,1.89 -1.57,3.34 -3.77,3.34zm12.65 3.13l5.02 0 0 -10.24c0,-2.22 1.63,-3.76 3.85,-3.76 0.69,0 1.64,0.12 2.11,0.27l0 -4.45c-0.44,-0.11 -1.07,-0.18 -1.57,-0.18 -2.03,0 -3.69,1.18 -4.35,3.42l-0.19 0 0 -3.16 -4.87 0 0 18.1zm19.38 0.29c2.93,0 4.44,-1.68 5.14,-3.19l0.21 0 0 2.9 4.95 0 0 -24.13 -5.01 0 0 9.07 -0.15 0c-0.67,-1.47 -2.12,-3.27 -5.15,-3.27 -3.97,0 -7.33,3.08 -7.33,9.3 0,6.06 3.22,9.32 7.34,9.32zm1.59 -3.99c-2.46,0 -3.8,-2.19 -3.8,-5.35 0,-3.13 1.32,-5.29 3.8,-5.29 2.44,0 3.81,2.06 3.81,5.29 0,3.23 -1.39,5.35 -3.81,5.35zm24.42 -4c0.02,2.42 -1.64,3.69 -3.45,3.69 -1.89,0 -3.12,-1.33 -3.13,-3.46l0 -10.63 -5.02 0 0 11.52c0.01,4.23 2.49,6.81 6.13,6.81 2.72,0 4.67,-1.4 5.49,-3.52l0.18 0 0 3.29 4.82 0 0 -18.1 -5.02 0 0 10.4zm9.12 7.7l4.95 0 0 -2.9 0.23 0c0.69,1.51 2.21,3.19 5.13,3.19 4.12,0 7.34,-3.26 7.34,-9.32 0,-6.22 -3.36,-9.3 -7.33,-9.3 -3.03,0 -4.47,1.8 -5.14,3.27l-0.16 0 0 -9.07 -5.02 0 0 24.13zm4.92 -9.05c0,-3.23 1.36,-5.29 3.8,-5.29 2.49,0 3.8,2.16 3.8,5.29 0,3.16 -1.34,5.35 -3.8,5.35 -2.42,0 -3.8,-2.12 -3.8,-5.35zm16.06 9.05l5.02 0 0 -18.1 -5.02 0 0 18.1zm2.52 -20.43c1.5,0 2.72,-1.14 2.72,-2.55 0,-1.38 -1.22,-2.53 -2.72,-2.53 -1.48,0 -2.7,1.15 -2.7,2.53 0,1.41 1.22,2.55 2.7,2.55zm14.68 20.78c4.82,0 7.85,-2.82 8.09,-6.99l-4.74 0c-0.29,1.94 -1.57,3.02 -3.29,3.02 -2.34,0 -3.86,-1.97 -3.86,-5.43 0,-3.41 1.53,-5.37 3.86,-5.37 1.84,0 3.02,1.21 3.29,3.01l4.74 0c-0.22,-4.18 -3.39,-6.92 -8.11,-6.92 -5.49,0 -8.88,3.8 -8.88,9.35 0,5.5 3.33,9.33 8.9,9.33zm11.31 -0.35l5.02 0 0 -5.75 1.35 -1.55 4.94 7.3 5.88 0 -7.06 -10.26 6.72 -7.84 -5.77 0 -5.79 6.87 -0.27 0 0 -12.9 -5.02 0 0 24.13zm22.68 6.78c3.73,0 5.71,-1.91 6.73,-4.83l7.04 -20.05 -5.32 0 -3.78 13.29 -0.19 0 -3.74 -13.29 -5.28 0 6.49 18.62 -0.29 0.76c-0.66,1.7 -1.92,1.78 -3.69,1.24l-1.13 3.75c0.72,0.3 1.88,0.51 3.16,0.51zm2.77 -27.21l3.55 0 3.6 -5.36 -4.65 0 -2.5 5.36zm21.14 20.78c4.82,0 7.85,-2.82 8.08,-6.99l-4.73 0c-0.3,1.94 -1.57,3.02 -3.29,3.02 -2.34,0 -3.86,-1.97 -3.86,-5.43 0,-3.41 1.53,-5.37 3.86,-5.37 1.84,0 3.01,1.21 3.29,3.01l4.73 0c-0.21,-4.18 -3.38,-6.92 -8.1,-6.92 -5.49,0 -8.89,3.8 -8.89,9.35 0,5.5 3.34,9.33 8.91,9.33zm16.33 -10.81c0.01,-2.34 1.43,-3.7 3.49,-3.7 2.03,0 3.24,1.3 3.22,3.53l0 10.63 5.02 0 0 -11.52c0.01,-4.25 -2.48,-6.81 -6.25,-6.81 -2.75,0 -4.59,1.29 -5.41,3.43l-0.22 0 0 -9.23 -4.87 0 0 24.13 5.02 0 0 -10.46zm33.11 -7.64l-3.59 0 0 -1.21c0,-1.23 0.49,-1.95 1.96,-1.95 0.61,0 1.22,0.14 1.62,0.26l0.88 -3.77c-0.62,-0.18 -2,-0.49 -3.54,-0.49 -3.41,0 -5.94,1.92 -5.94,5.86l0 1.3 -2.56 0 0 3.77 2.56 0 0 14.33 5.02 0 0 -14.33 3.59 0 0 -3.77zm7.56 18.44c2.68,0 4.41,-1.17 5.29,-2.85l0.15 0 0 2.51 4.76 0 0 -12.21c0,-4.31 -3.66,-6.12 -7.69,-6.12 -4.33,0 -7.18,2.07 -7.88,5.37l4.64 0.37c0.35,-1.2 1.42,-2.08 3.22,-2.08 1.71,0 2.69,0.86 2.69,2.34l0 0.08c0,1.16 -1.24,1.32 -4.39,1.62 -3.58,0.33 -6.79,1.53 -6.79,5.57 0,3.59 2.55,5.4 6,5.4zm1.44 -3.47c-1.54,0 -2.65,-0.72 -2.65,-2.09 0,-1.42 1.17,-2.11 2.94,-2.36 1.09,-0.15 2.88,-0.41 3.48,-0.81l0 1.92c0,1.89 -1.56,3.34 -3.77,3.34zm17.68 -7.33c0.01,-2.34 1.4,-3.7 3.42,-3.7 2.02,0 3.23,1.32 3.22,3.53l0 10.63 5.02 0 0 -11.52c0,-4.22 -2.47,-6.81 -6.25,-6.81 -2.68,0 -4.62,1.31 -5.44,3.43l-0.21 0 0 -3.2 -4.78 0 0 18.1 5.02 0 0 -10.46zm23.78 10.81c5.49,0 8.91,-3.76 8.91,-9.33 0,-5.61 -3.42,-9.35 -8.91,-9.35 -5.49,0 -8.91,3.74 -8.91,9.35 0,5.57 3.42,9.33 8.91,9.33zm0.02 -3.89c-2.53,0 -3.82,-2.32 -3.82,-5.47 0,-3.16 1.29,-5.49 3.82,-5.49 2.49,0 3.78,2.33 3.78,5.49 0,3.15 -1.29,5.47 -3.78,5.47zm23.77 -4.16c0.01,2.42 -1.65,3.69 -3.45,3.69 -1.9,0 -3.13,-1.33 -3.14,-3.46l0 -10.63 -5.02 0 0 11.52c0.01,4.23 2.49,6.81 6.13,6.81 2.72,0 4.67,-1.4 5.49,-3.52l0.18 0 0 3.29 4.83 0 0 -18.1 -5.02 0 0 10.4zm24.07 -5.24c-0.44,-3.33 -3.13,-5.39 -7.7,-5.39 -4.63,0 -7.68,2.14 -7.67,5.63 -0.01,2.71 1.7,4.46 5.23,5.17l3.13 0.62c1.58,0.32 2.3,0.9 2.33,1.8 -0.03,1.08 -1.19,1.84 -2.95,1.84 -1.79,0 -2.98,-0.76 -3.29,-2.23l-4.93 0.26c0.47,3.46 3.41,5.59 8.21,5.59 4.69,0 8.05,-2.39 8.06,-5.96 -0.01,-2.61 -1.72,-4.18 -5.23,-4.9l-3.28 -0.66c-1.68,-0.37 -2.31,-0.94 -2.3,-1.81 -0.01,-1.09 1.22,-1.8 2.77,-1.8 1.75,0 2.79,0.96 3.03,2.13l4.59 -0.29zm-9.96 -12.67l-4.28 0 0 0.16 4.77 5.18 3.74 0 4.78 -5.18 0 -0.16 -4.28 0 -2.36 2.87 -2.37 -2.87zm13.55 25.61l5.02 0 0 -5.75 1.35 -1.55 4.94 7.3 5.88 0 -7.06 -10.26 6.71 -7.84 -5.76 0 -5.79 6.87 -0.27 0 0 -12.9 -5.02 0 0 24.13zm30.9 -7.7c0.01,2.42 -1.65,3.69 -3.45,3.69 -1.9,0 -3.13,-1.33 -3.14,-3.46l0 -10.63 -5.02 0 0 11.52c0.01,4.23 2.49,6.81 6.13,6.81 2.72,0 4.68,-1.4 5.49,-3.52l0.19 0 0 3.29 4.82 0 0 -18.1 -5.02 0 0 10.4zm-3.26 -12.34c2.22,0 4.01,-1.71 4.01,-3.86 0,-2.15 -1.79,-3.93 -4.01,-3.93 -2.24,0 -4.05,1.78 -4.05,3.93 0,2.15 1.81,3.86 4.05,3.86zm0 -2.1c-1.06,0 -1.85,-0.84 -1.85,-1.76 0,-0.96 0.79,-1.8 1.85,-1.81 1.03,0 1.83,0.85 1.83,1.81 0,0.92 -0.8,1.75 -1.83,1.76z"/>
  </g>
 </g>
</svg>
